<?xml version="1.0" standalone="no"?>
<!DOCTYPE svg PUBLIC "-//W3C//DTD SVG 20010904//EN"
 "http://www.w3.org/TR/2001/REC-SVG-20010904/DTD/svg10.dtd">
<svg version="1.0" xmlns="http://www.w3.org/2000/svg"
 width="310.000000pt" height="150.000000pt" viewBox="0 0 310.000000 150.000000"
 preserveAspectRatio="xMidYMid meet">
<metadata>
Created by potrace 1.13, written by Peter Selinger 2001-2015
</metadata>
<g transform="translate(0.000000,150.000000) scale(0.100000,-0.100000)"
fill="#000000" stroke="none">
<path d="M661 1445 l-58 -55 -119 0 c-259 0 -373 -49 -441 -188 l-28 -57 0
-430 0 -430 24 -53 c30 -66 103 -133 179 -164 l57 -23 1220 -3 c850 -2 1239 0
1284 8 118 20 212 86 255 179 20 45 21 59 21 481 0 500 1 494 -86 575 -59 55
-111 80 -199 94 -42 7 -401 11 -1027 11 l-963 0 0 39 c0 30 -6 44 -22 55 -12
9 -26 16 -31 16 -5 0 -34 -25 -66 -55z m63 -123 c-6 -113 -8 -121 -28 -124
-20 -3 -21 -10 -24 -102 -3 -98 -3 -98 -46 -160 -86 -120 -216 -365 -255 -480
l-17 -49 -44 74 c-64 109 -134 202 -198 260 l-56 51 94 89 95 88 45 -135 c24
-74 47 -134 50 -134 3 0 18 42 33 93 58 187 152 396 230 512 44 65 117 148
124 141 2 -2 1 -58 -3 -124z m-144 35 c0 -31 -24 -37 -155 -37 -118 0 -135 -2
-185 -26 -66 -30 -104 -65 -133 -119 -18 -34 -22 -61 -25 -172 -3 -116 -6
-134 -24 -150 -20 -18 -20 -17 -16 142 4 182 13 211 87 278 52 47 90 66 165
82 83 18 286 20 286 2z m2254 -16 c79 -32 169 -118 188 -181 10 -34 13 -142
13 -455 0 -396 -1 -412 -21 -455 -42 -89 -132 -155 -242 -179 -75 -16 -2399
-16 -2474 0 -106 23 -195 89 -234 174 -23 48 -24 60 -24 273 0 216 1 222 19
212 18 -9 20 -25 23 -227 3 -217 3 -218 30 -259 28 -43 94 -104 114 -104 6 0
26 -8 45 -17 32 -17 115 -18 1249 -21 l1215 -3 67 22 c79 25 138 72 168 133
20 43 21 56 20 454 0 469 0 465 -84 539 -88 77 -21 73 -1132 73 -681 0 -995 3
-999 10 -4 6 -4 18 -1 26 5 13 129 14 1003 12 l998 -3 59 -24z m-1694 -226 l0
-55 -95 0 -95 0 0 -30 0 -30 80 0 80 0 0 -55 0 -55 -80 0 -80 0 0 -85 0 -85
-125 0 -125 0 0 225 0 225 220 0 220 0 0 -55z m558 26 c62 -28 92 -62 92 -105
0 -53 -31 -81 -124 -110 -19 -6 -19 -7 1 -29 95 -109 143 -166 143 -171 0 -3
-56 -6 -125 -6 l-126 0 -52 81 -52 80 -3 -80 -3 -81 -124 0 -125 0 0 226 0
226 223 -4 c208 -3 225 -5 275 -27z m612 -26 l0 -55 -95 0 c-95 0 -95 0 -95
-25 0 -25 1 -25 85 -25 l85 0 0 -55 0 -55 -85 0 -85 0 0 -30 0 -30 95 0 95 0
0 -60 0 -60 -220 0 -220 0 0 225 0 225 220 0 220 0 0 -55z m520 0 l0 -55 -95
0 c-95 0 -95 0 -95 -25 0 -25 1 -25 85 -25 l85 0 0 -55 0 -55 -85 0 -85 0 0
-30 0 -30 95 0 95 0 0 -60 0 -60 -217 2 -218 3 -3 223 -2 222 220 0 220 0 0
-55z m-1770 -535 c0 -77 1 -80 19 -70 34 18 109 12 131 -10 18 -18 20 -32 19
-120 l-1 -100 -34 0 -34 0 0 88 c0 48 -4 92 -8 98 -12 18 -41 24 -67 14 -24
-9 -25 -12 -25 -105 l0 -95 -35 0 -35 0 0 190 0 190 35 0 35 0 0 -80z m-167
53 c4 -2 7 -13 7 -23 0 -18 -5 -19 -58 -14 -74 8 -105 -6 -100 -44 3 -26 17
-38 130 -107 60 -37 63 -110 6 -145 -41 -25 -107 -35 -155 -23 -31 7 -39 14
-41 36 -3 25 -2 26 23 17 44 -17 103 -12 125 10 11 11 20 23 20 28 -1 17 -30
43 -87 76 -62 36 -103 77 -103 102 0 42 38 81 95 95 28 7 121 2 138 -8z m792
-135 c29 -27 29 -166 1 -197 -26 -29 -76 -36 -115 -17 l-31 17 0 -61 0 -60
-35 0 -35 0 0 170 0 170 35 0 c19 0 35 -5 35 -11 0 -8 4 -8 13 -1 31 25 100
21 132 -10z m290 16 c76 -36 75 -193 -1 -229 -35 -16 -88 -13 -99 6 -9 13 -26
11 -24 -3 1 -7 1 -35 0 -61 -1 -48 -1 -48 -33 -45 l-33 3 -2 168 -2 167 34 0
c19 0 37 -5 40 -10 4 -7 11 -8 18 -2 11 9 36 18 60 21 5 0 24 -6 42 -15z m788
4 l47 3 0 -140 c0 -77 -3 -147 -6 -156 -23 -60 -205 -59 -228 1 -8 20 -8 19
26 28 21 5 30 2 38 -14 9 -17 19 -21 53 -18 40 3 42 5 48 41 3 20 5 37 4 37
-2 0 -16 -7 -31 -15 -78 -40 -144 12 -144 115 0 88 47 138 115 123 17 -4 51
-6 78 -5z m-591 -14 c2 -9 2 -63 0 -120 l-3 -104 -35 0 -34 0 0 104 c0 57 3
111 6 120 8 22 61 21 66 0z m160 5 c3 -9 9 -9 25 0 12 6 42 11 67 11 65 0 76
-20 76 -142 l0 -98 -35 0 -35 0 0 95 c0 94 0 96 -26 106 -20 7 -32 6 -51 -6
-13 -9 -23 -21 -22 -28 1 -7 1 -47 0 -89 l-1 -78 -35 0 -35 0 0 120 0 120 34
0 c19 0 36 -5 38 -11z"/>
<path d="M1570 483 c-24 -10 -30 -25 -30 -85 0 -79 36 -110 85 -74 28 21 28
131 0 152 -20 15 -30 16 -55 7z"/>
<path d="M1870 470 c-15 -15 -20 -33 -20 -70 0 -37 5 -55 20 -70 44 -44 90 -8
90 70 0 52 -23 90 -55 90 -8 0 -24 -9 -35 -20z"/>
<path d="M2662 474 c-18 -13 -22 -24 -22 -74 0 -53 3 -61 25 -76 55 -36 97 23
81 111 -6 31 -29 55 -53 55 -5 0 -19 -7 -31 -16z"/>
</g>
</svg>
